<svg xmlns="http://www.w3.org/2000/svg" xmlns:xlink="http://www.w3.org/1999/xlink" viewBox="0,0,256,256" width="50px" height="50px" fill-rule="nonzero"><g fill="#353431" fill-rule="nonzero" stroke="none" stroke-width="1" stroke-linecap="butt" stroke-linejoin="miter" stroke-miterlimit="10" stroke-dasharray="" stroke-dashoffset="0" font-family="none" font-weight="none" font-size="none" text-anchor="none" style="mix-blend-mode: normal"><g transform="scale(5.12,5.12)"><path d="M5,4c-0.552,0 -1,0.447 -1,1v40c0,0.553 0.448,1 1,1h19c0.552,0 1,-0.447 1,-1v-9.5v-21v-9.5c0,-0.553 -0.448,-1 -1,-1zM25,14.5c0,5.79 4.71,10.5 10.5,10.5c5.79,0 10.5,-4.71 10.5,-10.5c0,-5.79 -4.71,-10.5 -10.5,-10.5c-5.79,0 -10.5,4.71 -10.5,10.5zM35.5,25c-5.79,0 -10.5,4.71 -10.5,10.5c0,5.79 4.71,10.5 10.5,10.5c5.79,0 10.5,-4.71 10.5,-10.5c0,-5.79 -4.71,-10.5 -10.5,-10.5z"></path></g></g></svg>